<?xml version="1.0" standalone="no"?>
<!DOCTYPE svg PUBLIC "-//W3C//DTD SVG 20010904//EN"
 "http://www.w3.org/TR/2001/REC-SVG-20010904/DTD/svg10.dtd">
<svg version="1.0" xmlns="http://www.w3.org/2000/svg"
 width="236.000000pt" height="232.000000pt" viewBox="0 0 236.000000 232.000000"
 preserveAspectRatio="xMidYMid meet">
<metadata>
Created by potrace 1.15, written by Peter Selinger 2001-2017
</metadata>
<g transform="translate(0.000000,232.000000) scale(0.100000,-0.100000)"
fill="#000000" stroke="none">
<path d="M984 2114 c-87 -31 -174 -142 -174 -221 0 -30 -5 -35 -62 -64 -233
-117 -402 -333 -455 -583 -22 -102 -13 -307 17 -401 72 -226 223 -407 424
-505 146 -72 202 -85 376 -85 163 0 245 18 368 78 61 31 73 33 139 29 61 -4
80 0 126 21 62 28 137 91 137 115 0 9 -19 36 -42 59 l-42 43 36 68 c48 88 75
161 94 251 12 61 22 82 53 116 56 61 73 90 69 121 -3 23 -23 38 -161 113
l-158 86 7 67 c6 65 6 66 -22 82 -58 31 -58 29 -25 81 35 55 54 131 49 195
l-3 45 -184 3 c-103 1 -190 7 -197 12 -6 6 -17 31 -24 56 -7 24 -21 49 -31 54
-10 6 -56 10 -103 10 l-86 0 0 66 c0 36 -5 74 -10 85 -13 23 -56 24 -116 3z
m49 -221 c6 -9 39 -13 106 -13 110 0 112 -1 136 -70 9 -25 21 -48 28 -52 7 -4
90 -8 185 -8 94 0 172 -4 172 -8 0 -37 -35 -114 -62 -137 -72 -60 -151 -88
-298 -105 -221 -25 -507 -160 -631 -298 -61 -67 -87 -117 -73 -140 22 -35 50
-26 92 30 22 30 62 74 90 99 56 50 159 115 169 106 7 -7 -55 -222 -98 -342
-16 -45 -51 -117 -77 -162 -55 -95 -169 -243 -187 -243 -16 0 -93 99 -133 170
-17 30 -43 91 -58 135 -25 71 -28 95 -28 215 -1 153 12 218 69 337 70 144 181
256 337 339 92 49 118 77 118 129 0 50 50 124 105 153 19 10 20 7 25 -56 3
-37 9 -73 13 -79z m583 -430 l36 -18 -6 -57 c-3 -32 -3 -64 0 -73 3 -8 65 -46
138 -84 187 -100 179 -91 132 -140 -22 -22 -55 -46 -74 -52 -46 -15 -185 -6
-236 15 l-38 16 36 40 c20 22 36 47 36 55 0 23 -75 72 -131 85 -64 16 -125 7
-203 -27 -34 -16 -79 -28 -101 -28 -50 0 -165 35 -172 51 -9 23 28 75 75 105
58 37 154 65 246 74 38 3 99 16 135 29 84 29 83 29 127 9z m-101 -304 c6 -6
-4 -23 -27 -47 -69 -71 -68 -73 11 -156 39 -40 71 -78 71 -85 0 -6 -9 -29 -20
-51 -11 -22 -20 -47 -20 -57 0 -10 55 -73 123 -141 118 -119 121 -124 102
-139 -61 -47 -124 -54 -216 -23 -72 25 -113 50 -194 120 -33 29 -94 68 -135
88 -64 31 -84 36 -145 36 -59 -1 -87 -8 -184 -47 -63 -26 -117 -45 -119 -42
-3 2 6 19 20 37 37 48 111 185 136 248 11 30 35 101 52 158 17 56 33 102 34
102 2 0 29 -10 62 -21 87 -32 204 -32 264 0 25 13 56 28 70 32 29 10 101 2
115 -12z m332 -213 c15 -12 -95 -276 -115 -276 -4 0 -32 24 -61 54 l-53 53 27
53 c22 44 25 57 16 77 -6 13 -18 26 -26 29 -38 15 -6 20 98 16 61 -2 113 -5
114 -6z m-661 -357 c33 -17 88 -54 122 -84 34 -30 75 -62 92 -72 17 -9 29 -22
27 -28 -4 -12 -115 -51 -185 -63 -49 -9 -55 -8 -91 18 -20 15 -54 50 -74 78
-44 59 -91 162 -80 173 27 25 111 15 189 -22z m-233 -100 c22 -44 52 -95 68
-114 16 -18 26 -36 21 -39 -12 -7 -145 22 -206 45 -58 22 -158 79 -163 94 -3
10 200 94 227 94 9 0 31 -33 53 -80z"/>
</g>
</svg>
